<?xml version="1.0" standalone="no"?>
<!DOCTYPE svg PUBLIC "-//W3C//DTD SVG 20010904//EN"
 "http://www.w3.org/TR/2001/REC-SVG-20010904/DTD/svg10.dtd">
<svg version="1.0" xmlns="http://www.w3.org/2000/svg"
 width="387.000000pt" height="387.000000pt" viewBox="0 0 387.000000 387.000000"
 preserveAspectRatio="xMidYMid meet">
<metadata>
Created by potrace 1.14, written by Peter Selinger 2001-2017
</metadata>
<g transform="translate(0.000000,387.000000) scale(0.100000,-0.100000)"
fill="#000000" stroke="none">
<path d="M1775 3556 c-92 -21 -174 -55 -185 -77 -12 -22 -1 -50 30 -72 37 -26
64 -70 71 -116 3 -25 9 -53 13 -62 6 -14 -1 -18 -38 -23 -81 -12 -218 -57
-306 -98 -109 -53 -191 -132 -243 -238 -51 -104 -115 -282 -127 -353 -9 -61 1
-152 20 -171 15 -15 12 -24 -10 -31 -27 -8 -50 -55 -50 -101 0 -28 8 -44 34
-70 45 -45 75 -44 213 4 91 33 113 37 140 29 28 -8 80 -60 140 -137 9 -12 -3
-67 -61 -265 l-72 -250 -47 -7 c-140 -20 -226 -154 -187 -292 57 -204 368
-209 429 -7 6 21 11 48 11 59 0 23 19 31 134 57 38 8 72 12 76 8 3 -5 19 -25
34 -46 l28 -38 -16 -71 c-22 -99 -68 -178 -143 -248 -74 -69 -137 -104 -225
-125 -170 -40 -332 8 -459 134 -297 297 -114 796 308 837 37 4 74 11 81 17 15
12 16 49 0 65 -31 31 -213 -3 -319 -59 -78 -42 -176 -133 -218 -203 -145 -242
-113 -526 83 -722 104 -104 217 -158 366 -173 l65 -6 -113 -28 c-155 -37 -350
-72 -520 -93 l-142 -18 22 -23 c25 -27 25 -27 277 13 425 67 749 162 1411 411
733 276 900 337 1145 417 143 47 292 95 331 106 61 17 72 24 76 45 3 14 2 25
-2 25 -25 0 -585 -177 -682 -215 -9 -4 18 29 61 72 149 152 204 346 156 552
-50 210 -239 391 -453 432 -89 17 -232 7 -311 -22 -70 -26 -91 -52 -72 -88 15
-26 32 -26 101 0 70 27 199 36 271 19 136 -31 269 -130 331 -246 122 -226 46
-514 -171 -653 -212 -137 -503 -83 -656 121 -116 154 -130 343 -40 523 42 83
44 91 30 112 -33 49 -80 13 -128 -98 -37 -83 -51 -155 -51 -249 2 -211 121
-408 305 -505 86 -45 148 -63 253 -71 78 -7 78 -7 45 -20 -500 -192 -1161
-434 -1186 -434 -2 0 17 17 44 39 27 21 68 60 92 87 52 58 117 188 127 250 6
42 8 43 33 36 14 -4 51 -7 82 -6 92 0 192 75 220 164 6 19 15 39 20 44 14 16
10 143 -5 180 -16 38 -51 66 -83 66 -12 0 -24 4 -27 8 -4 8 156 632 171 664 6
12 45 -28 174 -185 l167 -200 -14 -33 c-36 -86 0 -195 76 -234 46 -24 129 -27
168 -6 90 47 125 149 83 241 -34 74 -98 109 -192 103 l-58 -3 -179 215 c-99
118 -179 216 -178 217 1 1 22 -3 46 -8 59 -14 168 -3 200 20 30 21 81 123 82
163 1 16 -9 42 -20 58 -16 22 -22 44 -22 85 0 64 -13 95 -39 95 -35 0 -216
-71 -281 -110 l-65 -39 -70 20 c-69 20 -71 22 -125 97 -59 81 -121 238 -70
177 7 -8 28 -15 47 -15 39 0 78 35 88 80 4 19 14 30 30 34 38 10 46 35 31 94
-13 49 -13 51 9 56 31 8 37 28 24 87 -21 96 -110 191 -207 219 -62 18 -173 21
-237 6z m184 -87 c59 -12 124 -57 146 -99 l16 -30 -37 0 c-20 0 -48 -8 -62
-18 -48 -33 -93 -43 -165 -36 -38 4 -70 12 -72 18 -2 6 -6 23 -9 37 -3 14 -17
43 -31 63 -14 21 -23 41 -20 44 7 7 122 30 157 31 15 1 50 -4 77 -10z m113
-312 c-11 -12 -24 -35 -28 -50 l-7 -28 -33 32 c-32 31 -36 32 -66 21 -30 -11
-34 -10 -66 21 l-33 32 70 6 c43 4 90 16 119 30 l47 24 9 -33 c7 -27 5 -37
-12 -55z m-291 -50 c47 -31 95 -106 119 -185 12 -37 28 -78 36 -91 9 -13 12
-26 7 -30 -5 -3 -26 -17 -47 -30 l-37 -23 -23 21 c-12 11 -28 21 -34 21 -7 0
-85 -41 -174 -92 l-161 -91 -65 21 c-68 22 -93 19 -106 -13 -13 -34 14 -52
146 -99 73 -27 138 -51 144 -55 8 -4 -3 -41 -35 -118 l-46 -113 -35 6 c-60 11
-260 74 -308 97 -63 31 -83 61 -83 128 0 64 31 165 49 161 7 -1 33 -8 58 -14
38 -11 46 -10 60 4 30 30 11 65 -46 85 -57 20 -57 18 -9 119 72 153 210 239
480 298 35 8 67 14 70 15 3 1 21 -9 40 -22z m769 -382 c0 -8 -5 -15 -12 -15
-6 0 -33 -14 -60 -31 -37 -24 -54 -30 -76 -24 l-27 7 24 17 c21 14 123 57 144
60 4 0 7 -6 7 -14z m-514 -28 c20 -31 34 -37 213 -91 l192 -57 58 35 c59 36
91 45 91 26 0 -6 -9 -28 -19 -49 -30 -58 -68 -59 -340 -7 l-222 43 -40 39
c-21 21 -39 41 -39 44 0 7 63 49 75 49 6 1 20 -14 31 -32z m-149 -102 l91 -85
116 -22 c64 -12 115 -26 113 -31 -1 -5 -37 -27 -79 -50 l-77 -41 -23 21 c-13
12 -108 53 -213 92 -104 38 -201 74 -214 78 -22 9 -16 14 75 65 54 31 104 56
110 57 5 1 51 -37 101 -84z m-56 -221 c68 -25 129 -51 136 -57 13 -14 20 -119
29 -438 l6 -236 -32 -12 c-59 -20 -78 -15 -84 22 -6 36 -36 420 -36 460 0 41
-23 54 -129 72 -54 10 -105 21 -112 25 -9 6 -1 34 31 109 24 56 48 101 55 101
6 0 67 -21 136 -46z m379 -41 c0 -5 -26 -109 -59 -233 -67 -259 -68 -258 -73
20 l-2 155 59 32 c62 34 75 38 75 26z m-1080 -87 l24 -14 -39 -16 c-45 -19
-68 -17 -73 6 -2 10 7 20 25 26 36 13 34 14 63 -2z m443 -126 c8 0 8 -3 0 -11
-13 -13 -43 -5 -43 12 0 6 7 8 16 5 9 -3 21 -6 27 -6z m187 -52 c1 -13 5 -68
10 -123 5 -55 7 -101 6 -102 -1 -2 -37 38 -80 88 -43 49 -76 93 -72 96 16 16
103 62 119 62 11 1 17 -7 17 -21z m-82 -257 c115 -133 149 -191 65 -110 -107
103 -162 124 -186 72 -11 -24 -9 -28 22 -52 67 -51 124 -106 152 -148 26 -38
28 -46 20 -83 -5 -23 -11 -43 -13 -45 -1 -2 -48 -15 -103 -29 l-100 -26 -15
23 c-20 29 -52 61 -73 73 -15 9 -11 29 44 219 68 239 67 235 72 235 2 0 54
-58 115 -129z m1185 80 c10 -9 20 -33 23 -52 14 -82 -92 -133 -151 -74 -16 16
-25 35 -25 57 l0 32 40 -39 c36 -35 42 -37 65 -27 33 15 33 51 0 90 -14 17
-25 33 -25 37 0 12 54 -5 73 -24z m-700 -340 c5 -5 7 -24 5 -42 l-3 -34 -120
-7 c-128 -8 -145 -3 -145 38 0 20 5 24 33 25 17 0 52 9 77 20 45 19 134 19
153 0z m-864 -183 c-35 -110 -17 -131 88 -106 37 9 70 14 72 12 11 -11 -32
-76 -61 -94 -119 -72 -256 58 -193 181 17 32 69 69 96 69 15 0 15 -6 -2 -62z
m727 8 c116 7 116 7 105 -14 -6 -12 -28 -34 -47 -49 -29 -22 -47 -27 -90 -27
-60 0 -94 19 -131 74 -32 46 -29 53 12 29 31 -19 44 -20 151 -13z m-597 11
c13 -16 5 -27 -20 -27 -12 0 -16 6 -12 20 6 23 16 25 32 7z"/>
</g>
</svg>
